<svg fill="none" height="700" viewBox="0 0 1155 700" width="1155" xmlns="http://www.w3.org/2000/svg"><path clip-rule="evenodd" d="m915.834 540.208c4.733-15.391 7.224-31.354 7.224-47.721 0-126.049-147.733-228.233-329.971-228.233s-329.971 102.184-329.971 228.233c0 16.367 2.49 32.33 7.223 47.721z" fill="#f1f0ec" fill-rule="evenodd"/><path clip-rule="evenodd" d="m741.128 343.993-32.109 7.663-10.762-30.556c-2.836 2.464-12.169 4.947-18.07 6.328-.365 1.922-.555 3.905-.555 5.933 0 17.487 14.176 31.663 31.663 31.663 13.757 0 25.464-8.774 29.833-21.031z" fill="#e4b69d" fill-rule="evenodd"/><path clip-rule="evenodd" d="m422.6 278.729 17.704 9.695 11.649-8.96c3.389 4.237 11.234 10.497 19.621 8.132.279 3.082.179 6.248-.339 9.443-3.329 20.516-22.659 34.448-43.174 31.119-1.296-.211-2.565-.485-3.805-.819l-7.771 16.113-.119-.003c-2.339-.045-5.075-.098-7.237-1.848-1.088-.881-2.132-2.326-3.189-3.787-.826-1.143-1.659-2.297-2.527-3.198l6.941-14.393c-6.474-5.27-11.078-12.604-12.96-20.819 1.232.21 2.74.288 4.284.367 2.637.135 5.376.275 7.008 1.091-3.843-16.091 1.363-24.036 13.914-22.133z" fill="#dfb28b" fill-rule="evenodd"/><path clip-rule="evenodd" d="m790.552 202.787c7.072-11.86 11.134-25.722 11.134-40.533 0-43.77-35.483-79.254-79.254-79.254s-79.255 35.484-79.255 79.254c0 43.772 35.484 79.255 79.255 79.255 10.599 0 20.712-2.081 29.954-5.856v-26.366-6.5h6.5zm-68.102-76.355 14.256-14.256c-3.302-3.302-7.648-5.357-12.295-5.815-4.648-.458-9.31.71-13.193 3.305-3.883 2.594-6.747 6.455-8.102 10.924-.393 1.294-.652 2.616-.779 3.946l20.05 1.932z" fill="#fae4b0" fill-opacity=".5" fill-rule="evenodd"/><path d="m492.376 252.119 5.392-36.848 23.191 6.184z" stroke="#df0045"/><path d="m228.617 540.209h725.976" stroke="#00a8a6" stroke-linecap="round"/><path d="m228.617 542.631h725.976" stroke="#00a8a6" stroke-linecap="round"/><path clip-rule="evenodd" d="m659.83 503.436v82.824s-4.008 4.686-11.445.921l-10.607-83.745c-1.974-9.077 15.212-5.788 22.052 0z" fill="#cea28b" fill-rule="evenodd"/><path clip-rule="evenodd" d="m670.29 601.46c3.948.552 5.514-1.583 5.514-1.583l1.141-66.276-21.732-8.037 9.867 70.57-.593 3.683z" fill="#e4b69d" fill-rule="evenodd"/><path d="m523.701 577.975-2.67-15.192h9.666l5.019 15.192c14.639 2.118 36.487 9.756 38.695 12.629 2.763 3.591-49.681 4.434-51.688 1.257-3.352-5.309-1.692-13.886.978-13.886z" fill="#17b0ae"/><path d="m520.827 596.957-2.671-15.193h9.667l5.018 15.193c14.64 2.117 36.487 9.756 38.696 12.628 2.763 3.591-49.682 4.434-51.688 1.258-3.353-5.309-1.693-13.886.978-13.886z" fill="#26b5b3"/><path clip-rule="evenodd" d="m510.719 478.488 6.283 98.496s22.966-2.588 22.875-1.023l2.517-110.592c.874-15.002-12.364-26.958-27.2-24.567l-96.715 15.589c-11.177 1.802-18.778 12.325-16.976 23.502 1.8 11.178 12.322 18.778 23.5 16.977z" fill="#e42963" fill-rule="evenodd"/><path d="m311.423 192.184c13.801 0 24.989-11.188 24.989-24.989 0-13.8-11.188-24.988-24.989-24.988s-24.989 11.188-24.989 24.988c0 13.801 11.188 24.989 24.989 24.989z" fill="#fae4b0" fill-opacity=".5"/><path d="m653.693 303.937-5.392-36.849-23.191 6.184z" stroke="#df0045"/><path d="m647.785 238.229h-101.525c-10.531 0-19.068 8.537-19.068 19.069 0 10.531 8.537 19.068 19.068 19.068h101.525c10.532 0 19.069-8.537 19.069-19.068 0-10.532-8.537-19.069-19.069-19.069z" fill="#00a8a6"/><path d="m543.117 586.76 7.49-13.418" stroke="#e42b65" stroke-linecap="round" stroke-width="3"/><path d="m539.47 582.147 14.784-4.192" stroke="#e42b65" stroke-linecap="round" stroke-width="3"/><path d="m240.482 462.604h63.152v50.603c0 6.075-4.925 27-11 27h-41.152c-6.075 0-11-20.925-11-27z" fill="#fff" fill-opacity=".37"/><path d="m659.919 595.878s2.454-12.208 0-12.208c0 0-4.37 3.748-6.526 3.748-2.155 0-5.178-1.934-5.178-1.934-13.45 1.945-24.82 7.029-26.85 9.669-2.538 3.299 38.554.725 38.554.725z" fill="#e53068"/><path d="m513.353 442.01c-7.265-7.837-22.816-7.371-29.012-5.908-1.443 2.597-2.985 9.136-2.984 12.511.002 4.219 16.766 7.977 19.478 7.977 3.65 0 6.819 4.136 17.331 2.593 1.423-2.459 2.452-9.336-4.813-17.173z" fill="#cea28b"/><path d="m433.969 360.583c-3.027-8.595-12.448-13.11-21.044-10.083-8.595 3.026-13.11 12.448-10.083 21.043zm8.168 72.878-15.564 5.48 2.939 8.346 8.578 2.17zm-39.295-61.918 23.731 67.398 31.127-10.96-23.731-67.398zm35.248 77.914 53.237 13.47 8.095-31.992-53.238-13.47z" fill="#fae28b"/><path d="m579.969 479.021c3.011 0 5.452 2.441 5.452 5.452v107.011c0 3.011-2.441 5.453-5.452 5.453s-5.452-2.442-5.452-5.453v-107.011c0-3.011 2.441-5.452 5.452-5.452z" fill="#ffefb3"/><path d="m574.517 487.473c0-3.011 2.44-5.452 5.451-5.452s5.452 2.441 5.452 5.452v2.479h-10.903z" fill="#000" fill-opacity=".4"/><path d="m665.105 479.022c0 4.186-38.098 7.581-85.095 7.581-46.998 0-85.096-3.395-85.096-7.581 0-1.129-2.697-8.261 2.269-9.224 13.455-2.608 48.5 1.643 82.827 1.643 34.326 0 69.208-4.148 82.663-1.54 4.966.962 2.432 7.992 2.432 9.121z" fill="#26b5b3"/><path d="m580.009 479.019c46.997 0 85.096-3.394 85.096-7.581s-38.099-7.581-85.096-7.581-85.096 3.394-85.096 7.581 38.099 7.581 85.096 7.581z" fill="#ffefb5"/><path d="m557.728 591.928h44.482c2.71 0 4.907 2.197 4.907 4.907 0 2.709-2.197 4.906-4.907 4.906h-44.482c-2.71 0-4.906-2.197-4.906-4.906 0-2.71 2.196-4.907 4.906-4.907z" fill="#ffefb5"/><path d="m498.062 465.44 47.738 2.662 25.408-53.006" stroke="#fff" stroke-linecap="round" stroke-width="9"/><path d="m657.342 467.048h-45.883l-8.761-56.038" stroke="#fff" stroke-linecap="round" stroke-width="9"/><path clip-rule="evenodd" d="m442.213 407.213c2.197 22.882 7.569 39.335 12.095 45.951l-66.849 45.739c-16.257-23.761-23.275-56.869-25.875-83.95-1.21-12.605.192-30.236 6.132-44.176 8.408-19.731 23.558-33.992 45.713-25.911l13.943 10.483c10.798 13.886 12.706 29.619 14.841 51.864z" fill="#ffeeb0" fill-rule="evenodd"/><path d="m513.245 446.092c-7.265-7.837-22.816-7.371-29.012-5.907-1.443 2.596-2.985 9.135-2.984 12.51.002 4.219 16.767 7.977 19.479 7.977 3.649 0 6.818 4.136 17.33 2.593 1.423-2.459 2.452-9.336-4.813-17.173z" fill="#dfb28b"/><path clip-rule="evenodd" d="m738.036 139.255c2.961-3.61 4.581-8.135 4.581-12.806h-20.185l14.273-14.273c-3.302-3.302-7.647-5.357-12.296-5.815-4.646-.458-9.31.71-13.193 3.305-3.882 2.594-6.745 6.455-8.101 10.924-1.355 4.469-1.119 9.27.668 13.584 1.787 4.315 5.014 7.876 9.133 10.078 4.118 2.201 8.873 2.906 13.454 1.995 4.58-.911 8.703-3.382 11.666-6.992zm-138.228 47.157h-101.525c-10.531 0-19.068 8.537-19.068 19.068s8.537 19.069 19.068 19.069h101.525c10.532 0 19.069-8.538 19.069-19.069s-8.537-19.068-19.069-19.068zm-212.198 312.384.064 2.183c2.475-.239 11.605.359 22.254 1.061 4.322.286 9.104.052 14.09-.191h.001c6.682-.326 13.732-.67 20.534.191 4.774.605 10.238.848 15.885 1.1 10.382.462 21.379.951 29.82 3.766l24.628 87.837 23.434-4.695c-4.008-25.896-13.709-83.142-23.434-109.749-4.79-5.042-11.274-7.58-14.698-8.822-4.398-1.596-9.483-2.957-14.675-4.131-10.459-2.365-23.21-4.385-35.807-5.981-2.087-.264-4.182-.518-6.274-.762zm161.432 94.256c.404-.723.145-1.637-.578-2.041-.724-.404-1.637-.145-2.041.579l-3.443 6.166-6.794 1.926c-.797.226-1.26 1.055-1.034 1.852s1.056 1.26 1.853 1.034l3.907-1.107-1.979 3.546c-.404.723-.145 1.637.578 2.041.724.404 1.637.144 2.041-.579l3.442-6.165 6.795-1.927c.797-.225 1.26-1.055 1.034-1.852s-1.056-1.26-1.853-1.034l-3.908 1.108zm93.944-14.341c.723-.403 1.637-.144 2.04.579l3.138 5.621 6.195 1.756c.797.226 1.26 1.056 1.034 1.853s-1.056 1.26-1.853 1.034l-3.308-.938 1.676 3.002c.404.723.145 1.637-.578 2.041-.724.404-1.637.145-2.041-.579l-3.138-5.621-6.195-1.756c-.797-.226-1.26-1.056-1.034-1.853s1.056-1.26 1.853-1.034l3.308.938-1.676-3.002c-.404-.723-.145-1.637.579-2.041zm285.134-366.545h-167.72v207.223c2.06-2.481 5.512-3.564 8.745-2.459 4.181 1.429 6.411 5.977 4.982 10.158-7.809 22.843-10.634 43.181-11.509 57.765-.437 7.287-.386 13.12-.231 17.089.078 1.984.182 3.499.263 4.496.041.498.076.866.099 1.097.007.065.013.119.017.162.004.034.007.062.009.082l.004.035.001.007v.002.002l1.077 8.945h-3.457v14.063h167.72zm-154.621 47.109h141.52v-4h-141.52zm141.52 81.363h-141.52v-4h141.52zm-141.519 4.485h141.52v-4h-141.52zm.002 106.84h141.521v-4h-141.521zm141.517-151.825h-71.125v-4h71.125zm-141.518 83.614h141.52v-4h-141.52zm141.521 63.73h-141.52v-4h141.52zm-141.519 65.934h141.521v-4h-141.521zm-60.348 6.875c.979-1.28 1.968-2.459 2.966-3.52h2.737c-1.376 1.297-2.766 2.873-4.162 4.698-4.572 5.976-9.09 14.461-13.311 24.027-8.438 19.12-15.605 42.353-19.622 57.916l-1.878-.485c4.033-15.623 11.231-38.964 19.725-58.214 4.245-9.618 8.835-18.266 13.545-24.422zm27.492 2.712c-1.712-2.48-3.447-4.58-5.182-6.232h2.72c1.381 1.491 2.736 3.215 4.058 5.13 4.43 6.417 8.575 15.09 12.146 24.601 7.139 19.016 12.065 41.597 12.345 56.65l-1.939.036c-.275-14.77-5.135-37.127-12.222-56.004-3.542-9.434-7.621-17.945-11.926-24.181zm-326.144-5.306c-.412-.539-.826-1.06-1.241-1.563h-2.636c.761.851 1.524 1.778 2.289 2.778 4.714 6.162 9.372 14.912 13.726 24.777 8.7 19.716 16.091 43.673 20.234 59.721l1.936-.499c-4.158-16.111-11.581-40.181-20.341-60.03-4.377-9.918-9.11-18.836-13.967-25.184zm-29.995 1.66c.789-1.143 1.59-2.22 2.4-3.223h2.614c-1.128 1.285-2.253 2.745-3.368 4.36-4.439 6.43-8.646 15.206-12.298 24.935-7.308 19.465-12.32 42.52-12.603 57.75l-2-.037c.289-15.523 5.368-38.808 12.73-58.416 3.683-9.808 7.957-18.752 12.525-25.369zm-144.026-56.754h63.152v50.603c0 6.075-4.925 27-11 27h-41.152c-6.075 0-11-20.925-11-27zm175.015-93.399c-3.027-8.595-12.448-13.11-21.044-10.083-8.595 3.026-13.11 12.448-10.083 21.043l23.731 67.398 3.556 10.099 10.672.867 65.647 5.331 2.672-32.892-54.976-4.465z" fill="#2c3e50" fill-rule="evenodd"/><path d="m415.543 369.239c-3.027-8.595-12.448-13.11-21.044-10.083-8.595 3.026-13.11 12.448-10.083 21.043zm8.168 72.878-15.564 5.48 3.556 10.099 10.672.867zm-39.295-61.918 23.731 67.398 31.127-10.96-23.731-67.398zm37.959 78.364 65.647 5.331 2.672-32.892-65.648-5.331z" fill="#fff" fill-opacity=".22"/><path d="m391.541 345.197s3.963-10.657 7.782-12.109c3.818-1.452 6.628 5.939 9.806 8.513 3.179 2.573 7.601 1.477 10.174 2.083 2.058.484.857 7.679 0 10.303l-5.298 4.228-14.682-.757z" fill="#ffeeb0"/><path d="m219.408 338.103c-37.631-83.708 13.056-132.859 86.013-113.659 41.656 10.962 112.123-14.458 112.123-49.918 0-38.936 61.141-43.608 66.516-44.376" stroke="#00a8a6" stroke-dasharray="4 4"/><path d="m505.312 124.201-12.775-15.414 63.997 8.786-62.778 35.049z" fill="#fae3ad"/><path d="m496.368 131.735 9.642-7.625 49.131-6.358z" fill="#00a8a6"/><g clip-rule="evenodd" fill-rule="evenodd"><path d="m769.199 416.954c4.181 1.43 6.411 5.978 4.982 10.158-7.809 22.844-10.634 43.181-11.509 57.765-.437 7.287-.386 13.121-.231 17.089.078 1.984.182 3.5.263 4.496.041.498.076.866.099 1.098.012.116.021.197.026.244l.004.034.001.007v.002.002l1.077 8.945h-75.713c-4.418 0-8-3.581-8-8 0-4.418 3.582-8 8-8h58.196c-.119-4.296-.105-10.014.307-16.875.943-15.724 3.978-37.522 12.341-61.983 1.429-4.18 5.977-6.411 10.157-4.982z" fill="#000" fill-opacity=".16"/><path d="m720.208 465.573h6.521l1.073-4.001 19.656 1.199s.441 1.171 1.058 3.133c-.932 6.617-1.495 12.667-1.815 18.014-.412 6.861-.426 12.579-.307 16.875h-58.196c-4.418 0-8 3.582-8 8 0 2.01.742 3.847 1.966 5.252-.468 2.667 0 6.128.543 10.153.484 3.58 1.028 7.605 1.028 11.915l-52.586-19.447s-.481-22.564 4.321-30.725c4.801-8.161 24.175-20.575 48.265-16.084 6.631 1.236 9.934-2.099 11.553-6.223z" fill="#fff1bd"/><path d="m670.29 601.461 1.281 1.309c.579.592.569 1.542-.023 2.121-.592.58-1.542.569-2.121-.023l-4.94-5.049-3.848-.042c-11.597 5.668-21.824 12.739-20.045 15.328 2.886 4.2 38.559-6.948 38.559-6.948s-.779-10.671-3.165-11.046l-1.044 1.956s-.706 2.945-4.654 2.394z" fill="#26b5b3"/><path d="m716.998 364.511c4.092-.745 7.911-2.276 11.292-4.431l1.618 11.631c-.278 2.76-1.551 3.422-3.451 4.41l-.16.083c-3.305 1.721-8.402-.969-8.402-.969z" fill="#cea28b"/><path d="m720.029 424.939-6.408 23.886-55.484 2.112c-4.633-2.425-14.878-5.594-21.47-1.802-7 4.028-8.668 13.329-8.668 13.329s8.801.235 14.433 0c1.926-.08 4.091.049 6.19.174h.001c4.665.278 9.002.536 9.656-1.564.031-.099.061-.203.09-.311l61.839 4.811h6.521l1.689-6.298 8.46-31.538z" fill="#e4b69d"/><path d="m782.289 230.6h10.17v23.449h-10.17zm0 49.004h10.17v55.811h-10.17zm12.859 0h10.17v55.811h-10.17zm23.029 18.531h-10.17v37.279h10.17zm2.688 0h10.17v37.279h-10.17zm23.028 13.832h-10.17v23.449h10.17zm-38.575-81.367h-10.17v23.449h10.17zm2.689 0h10.17v23.449h-10.17zm23.028 0h-10.17v23.449h10.17zm2.688 0h10.17v23.449h-10.17zm65.213 40.504h-10.17v23.448h10.17zm3.584 0h10.17v23.448h-10.17zm-6.509 81.367h-7.246v25.699h7.246zm2.69 0h7.246v25.699h-7.246zm-16.209 45.614h-7.246v43.814h7.246zm2.688 0h7.247v43.814h-7.247zm17.181 0h-7.246v43.814h7.246zm2.688 0h7.246v43.814h-7.246zm-2.804 83.957h-4.235v25.698h4.235zm2.122 0h4.235v25.698h-4.235zm-14.836 0h-4.235v25.698h4.235zm2.122 0h4.235v25.698h-4.235zm-14.834 0h-4.236v25.698h4.236zm2.12 0h4.236v25.698h-4.236zm-14.836 0h-4.236v25.698h4.236zm2.121 0h4.236v25.698h-4.236zm-14.835 0h-4.235v25.698h4.235zm2.122 0h4.235v25.698h-4.235zm-14.836 0h-4.235v25.698h4.235zm2.122 0h4.235v25.698h-4.235zm-14.836 0h-4.236v25.698h4.236zm2.122 0h4.236v25.698h-4.236z" fill="#000" fill-opacity=".25"/></g><path d="m789.698 100.689c4.091 0 7.408-3.3164 7.408-7.4078s-3.317-7.4082-7.408-7.4082c-4.092 0-7.409 3.3168-7.409 7.4082s3.317 7.4078 7.409 7.4078z" fill="#fdf2d8"/><path clip-rule="evenodd" d="m736.706 112.176-14.256 14.256-.063.036-20.05-1.932c.127-1.33.386-2.652.779-3.946 1.355-4.469 4.219-8.33 8.102-10.924 3.883-2.595 8.545-3.763 13.193-3.305 4.647.458 8.993 2.513 12.295 5.815zm15.68 90.611h6.5 170.749 6.5v6.5 324.421 6.5h-6.5-170.749-6.5v-6.5-16.938h-64.242c-4.418 0-8-3.582-8-8s3.582-8 8-8h58.196c-.119-4.296-.105-10.014.307-16.875.635-10.589 2.218-23.931 5.739-38.986v-235.622zm8.014 328.046v-14.063h3.457l-1.077-8.945v-.002-.002l-.001-.007-.004-.035-.008-.074c-.005-.045-.011-.101-.018-.17-.015-.15-.035-.358-.058-.622l-.006-.068-.008-.092c-.009-.099-.018-.204-.027-.315-.081-.997-.185-2.512-.263-4.496-.155-3.969-.206-9.802.231-17.089.875-14.584 3.7-34.922 11.509-57.765 1.429-4.181-.801-8.729-4.982-10.158-3.233-1.105-6.685-.022-8.745 2.459v-207.223h167.72v318.667zm154.619-271.558h-141.52v-4h141.52zm-141.52 81.363h141.52v-4h-141.52zm141.521 4.485h-141.52v-4h141.52zm.003 106.84h-141.521v-4h141.521zm-71.129-151.825h71.125v-4h-71.125zm71.127 83.614h-141.52v-4h141.52zm-141.519 63.73h141.52v-4h-141.52zm141.522 65.934h-141.521v-4h141.521zm-667.377-50.813h36.342c28.448-29.767 61.657-72.112 53.133-112.939-13.374-64.051-13.374-92.91 0-121.065-5.152 5.262-10.488 10.45-15.773 15.588-28.411 27.621-55.332 53.793-44.056 82.25 11.21 28.292 2.646 44.101-6.891 61.705-4.807 8.874-9.861 18.204-12.754 29.819-2.195-6.708-2.78-13.824.806-22.874 4.404-11.115-4.833-19.319-16.603-29.772l-.001-.001-.001-.001-.001-.001c-3.876-3.442-8.027-7.129-12.055-11.244 5.37 11.306 2.576 23.698-2.205 44.896v.001c-1.113 4.938-2.334 10.353-3.585 16.344-3.534 16.926 10.003 33.798 23.644 47.294zm114.446-42.776c1.921 16.963 5.6 35.839 12.14 53.112.392 3.672.67 7.121.862 10.319.412 6.861.425 12.579.307 16.875h58.196c4.419 0 8 3.582 8 8s-3.581 8-8 8h-75.714l1.077-8.945.001-.002v-.002l.001-.007.004-.034c.003-.029.007-.071.013-.127l.012-.117c.024-.232.059-.6.1-1.098.081-.996.185-2.512.262-4.496.156-3.969.207-9.802-.23-17.089-.875-14.585-3.7-34.922-11.509-57.765-1.43-4.181.801-8.728 4.981-10.158 3.668-1.254 7.618.309 9.497 3.534zm64.747-128.003c-.01.352-.304.629-.656.619s-.629-.304-.619-.656c.072-2.493-.342-5.904-1.724-8.172-1.701-2.792-4.651-2.771-7.376-1.465-2.473 1.185-3.86 2.858-4.52 4.67-.666 1.827-.611 3.851-.093 5.743.518 1.893 1.49 3.61 2.6 4.802 1.135 1.22 2.288 1.767 3.174 1.646 1.088-.148 1.898-.539 2.473-1.07.574-.532.947-1.233 1.112-2.058.333-1.666-.188-3.832-1.626-5.889-.202-.289-.131-.686.157-.888.289-.202.686-.131.888.157 1.576 2.255 2.251 4.77 1.831 6.87-.211 1.057-.703 2.01-1.497 2.744s-1.858 1.219-3.165 1.397c-1.509.206-3.049-.717-4.281-2.041-1.258-1.352-2.326-3.254-2.896-5.333-.57-2.082-.652-4.384.125-6.516.96-2.405 4.348-6.917 10.217-5.725 5.869 1.193 6.363 7.94 5.876 11.165zm39.792 4.836c-.22.275-.622.32-.897.1-1.846-1.477-4.759-1.536-7.842-.866-3.043.662-6.047 1.99-7.875 3.01l-.622-1.113c1.91-1.066 5.032-2.449 8.226-3.143 3.153-.685 6.584-.744 8.91 1.116.275.22.319.621.1.896zm-8.992 8.157c1.653-1.873 2.546-3.785 1.996-4.271-.551-.486-2.337.638-3.99 2.51-1.653 1.873-2.547 3.785-1.996 4.271s2.337-.638 3.99-2.51zm-15.969 15.453c-.124-.33-.492-.497-.821-.373-.33.123-.497.491-.373.821.636 1.698 2.172 3.99 4.739 5.426 2.594 1.452 6.174 1.991 10.796.268.33-.123.498-.49.375-.82s-.49-.498-.82-.375c-4.308 1.606-7.494 1.065-9.728-.185-2.263-1.266-3.62-3.299-4.168-4.762zm240.909 12.363c1.855-.999 4.457-.498 7.036.65.271.12.588-.002.709-.272.12-.271-.002-.588-.272-.709-2.62-1.165-5.651-1.869-7.982-.614-.261.141-.358.466-.218.727.141.261.466.358.727.218zm5.374 10.917c.598-.157.649-1.932.115-3.964-.534-2.033-1.452-3.553-2.05-3.396s-.649 1.932-.115 3.965c.534 2.032 1.452 3.552 2.05 3.395zm12.3 10.852c.152-.254.069-.584-.185-.736s-.584-.069-.736.185c-.675 1.128-2.105 2.605-4.169 3.311-2.039.697-4.757.663-8.08-1.318-.254-.152-.584-.069-.735.186-.152.254-.069.584.186.735 3.564 2.126 6.609 2.222 8.976 1.412 2.341-.8 3.96-2.466 4.743-3.775z" fill="#1abc9c" fill-rule="evenodd"/><path clip-rule="evenodd" d="m717.646 372.266c-8.093 2.732-13.065 11.419-14.624 16.181-.439 1.34-.878 2.653-1.315 3.956l-.002.008c-3.523 10.524-6.861 20.497-8.367 40.286-.578 7.583.182 12.997 1.456 16.846l18.827-.717 6.407-23.886 16.85 2.8-8.46 31.538-1.689 6.298h-6.521l-8.893-.692c8.139 4.724 19.962 9.845 28.436 6.108 1.392-.614 2.666-1.135 3.833-1.613 1.827-.747 3.393-1.387 4.744-2.112 1.661-12.319 4.601-26.688 9.67-42.21-.027-7.993-.893-16.247-3.737-24.661-5.323-15.745-15.09-24.812-24.483-27.833-.44 2.062-1.633 2.682-3.321 3.559l-.161.084c-3.304 1.721-8.401-.969-8.401-.969z" fill="#00a8a6" fill-rule="evenodd"/><path d="m736.078 383.265c-8.99-1.494-17.488 4.583-18.981 13.573l-4.464 26.874 32.554 5.408 4.464-26.875c1.493-8.989-4.584-17.487-13.573-18.98z" fill="#e42963"/><path clip-rule="evenodd" d="m803.551 107.559c-.943-1.288-2.752-1.566-4.04-.623-1.288.944-1.567 2.753-.623 4.041 28.27 38.579 19.912 92.771-18.667 121.041-1.288.943-1.567 2.752-.623 4.04.943 1.288 2.752 1.567 4.04.623 41.155-30.157 50.071-87.967 19.913-129.122zm-113.169 63.234c0 2.221-1.801 4.021-4.021 4.021-2.221 0-4.022-1.8-4.022-4.021s1.801-4.022 4.022-4.022c2.22 0 4.021 1.801 4.021 4.022zm4.97-3.662h55.283c.355 0 .643.287.643.642v6.246c0 .354-.288.642-.643.642h-55.283c-.355 0-.642-.288-.642-.642v-6.246c0-.355.287-.642.642-.642zm0 14.39h68.895c.355 0 .643.288.643.643v6.245c0 .355-.288.643-.643.643h-68.895c-.355 0-.642-.288-.642-.643v-6.245c0-.355.287-.643.642-.643zm-8.992 7.946c2.221 0 4.021-1.801 4.021-4.022s-1.8-4.021-4.021-4.021-4.022 1.8-4.022 4.021 1.801 4.022 4.022 4.022z" fill="#fae3ad" fill-rule="evenodd"/><path clip-rule="evenodd" d="m738.036 139.255c2.963-3.61 4.582-8.136 4.582-12.806h-20.186l.035-.035-.147.026 3.035 19.982c.34-.05.678-.108 1.015-.175 4.581-.911 8.703-3.382 11.666-6.992z" fill="#24b4b2" fill-rule="evenodd"/><path clip-rule="evenodd" d="m724.313 362.232c-2.305 1.041-4.756 1.814-7.315 2.279l.327 3.918c2.443-1.531 6.441-4.393 6.988-6.197z" fill="#b08874" fill-rule="evenodd"/><path d="m736.887 427.762-16.871-2.83 15.356 8.248z" fill="#000" fill-opacity=".2"/><path clip-rule="evenodd" d="m202.965 140.267-.965-.847.138 1.276c6.485 59.994 21.876 113.038 36.527 163.533 2.26 7.789 4.502 15.518 6.691 23.202 12.958 45.477 24.061 89.399 26.02 135.172h1.001c-1.96-45.921-13.095-89.949-26.059-135.446-2.191-7.691-4.435-15.424-6.695-23.215-14.547-50.139-29.796-102.697-36.351-162.072 53.862 47.641 79.611 101.509 87.521 161.037 6.566 49.421.838 102.759-11.34 159.696h1.023c12.16-56.917 17.887-110.312 11.308-159.828-7.988-60.117-34.112-114.495-88.819-162.508z" fill="#00a8a6" fill-rule="evenodd"/><path d="m240.482 210.889c25.728 46.88 41.973 95.575 36.391 189.604" stroke="#00a8a6"/><path d="m488.506 457.728 1.473-18.281c1.319 6.585 3.807 19.756 3.207 19.756-.601 0-3.37-.983-4.68-1.475z" fill="#000" fill-opacity=".1"/><path clip-rule="evenodd" d="m422.6 278.73 17.704 9.695 11.649-8.96c4.181 5.227 15.143 13.531 25.538 4.928 12.993-10.752-51.525-47.939-56.901-28.674-7.371-8.477-17.167-1.129-18.416 6.932-.077-.019-.116-.028-.116-.028s-13.018 24.158-7.393 35.435c.693 1.39 3.776 1.548 7.013 1.714 2.637.135 5.376.275 7.008 1.091-3.843-16.091 1.363-24.036 13.914-22.133z" fill="#383838" fill-rule="evenodd"/><path clip-rule="evenodd" d="m749.195 342.068-40.176 9.588-10.762-30.556c-4.252 3.694-23.109 7.432-23.109 7.432s-1.502-7.263 4.331-17.039c15.276-25.603 50.679-18.041 51.305-11.214 8.974-7.173 22.788 34.618 18.411 41.789z" fill="#212121" fill-rule="evenodd"/><path d="m415.151 321.66c1.764 2.28 6.829 4.75 9.142 5.7l-2.581 5.485c-2.668-.946-5.486-7.851-6.561-11.185z" fill="#cea28b"/><path clip-rule="evenodd" d="m715.542 373.137c-6.85 3.39-11.1 10.98-12.52 15.31-.44 1.34-.88 2.66-1.32 3.96-1.76 5.26-3.47 10.39-4.94 16.67-.16.71-.33 1.43-.49 2.17l-.09-.03.01-.02-5.16-1.97 9.68-25.46c2.43-6.39 8.4-10.39 14.83-10.63z" fill="#e42963" fill-rule="evenodd"/><path clip-rule="evenodd" d="m694.552 448.776-1.53.39-2.05.52-32.84 1.25c-4.63-2.42-14.87-5.59-21.47-1.8-5.43 3.13-7.65 9.44-8.37 12.1-.27-.05-.42-.08-.42-.08s-2.25-6.72 3.86-12c6.1-5.26 17.71-3.62 22.26-2.01l29.48-9.91-.17-.09 12.88-25.93.09.03c-1.24 5.83-2.26 12.67-2.93 21.45-.54 7.09.09 12.28 1.21 16.08z" fill="#cea28b" fill-rule="evenodd"/><path d="m672.833 598.413-15.366-.169" stroke="#f3c045" stroke-linecap="round" stroke-miterlimit="10" stroke-width="3"/><path d="m670.523 603.821-10.746-10.985" stroke="#f3c045" stroke-linecap="round" stroke-miterlimit="10" stroke-width="3"/></svg>