<svg fill="#fff" viewBox="0 0 30 30" xmlns="http://www.w3.org/2000/svg"><path d="m6.6015625 3c-.914 0-1.6015625 1-1.6015625 1-5.235 0-2.3467656 8.355891-3.8847656 9.587891 0 0 .9427656 1.166015 3.8847656 1.166015v.998047c-.813 2.118-5 1.335047-5 5.248047h8.0234375c.704-.426 2.9765625-1.607422 2.9765625-1.607422-.543-.58-1.3263281-1.582797-1.6113281-2.341797-.624-.313-1.1516719-.680828-1.3886719-1.298828v-1.009765c.19 0 .7502656-.043891.9472656-.087891-.446-.687-.8222656-2.252859-.8222656-3.130859 0-2.2330005.9616406-4.0697036 2.556641-5.2207036-.481-1.841-1.5490785-3.3027344-4.0800785-3.3027344zm16.3984375 0c-2.223 0-3.587969 1.5292031-3.917969 3.5332031 1.616.866 2.667969 2.7329844 2.667969 5.0839849 0 .734999-.171422 1.442234-.357422 1.990234.069.271.107422.573203.107422.908203 0 2.47-2.5 4.933594-2.5 4.933594.543.237 2.280234 1.119781 2.990234 1.550781h8.009766c0-5.25-4.263-3.75-5-6v-1.5c.332-.167 1.122656-1.316844 1.222656-2.214844.26-.02.777344-.655609.777344-1.224609 0-.5690001-.180891-.8083908-.337891-.9003908 0 0 .337891-.7511562.337891-1.6601562 0-1.821-.492-3.5-2-3.5 0 0-.433-1-2-1zm-8 4c-2.692 0-4.875 1.6214375-4.875 4.523438 0 1.227.6875 2.183593.6875 2.183593s-.3125.153594-.3125.808594c0 1.273.818359 1.578125.818359 1.578125.114 1.008 1.681641 2.484375 1.681641 2.484375v1.685547c-.842 2.526-6 .861328-6 6.736328h16c0-5.895-5.158-4.210328-6-6.736328v-1.685547s1.567641-1.476375 1.681641-2.484375c0 0 .818359-.565125.818359-1.578125 0-.702-.3125-.808594-.3125-.808594s.5625-1.069843.5625-2.089843c0-2.0450005-1.026-3.617188-2.75-3.617188 0 0-.732-1-2-1z" fill="#fff"/></svg>