<svg fill="#fff" viewBox="0 0 30 30" xmlns="http://www.w3.org/2000/svg"><path d="m23 3h-16c-1.105 0-2 .895-2 2v20c0 1.105.895 2 2 2h16c1.105 0 2-.895 2-2v-20c0-1.105-.895-2-2-2zm-4.001 2c1.106 0 2.001.896 2.001 2s-.895 2-2.001 2c-1.104 0-1.999-.896-1.999-2s.895-2 1.999-2zm-7.41 16.784c-.172.128-.371.216-.589.216h-4c-.552 0-1-.448-1-1 0-.519.406-.877.9-.995.382-.092 3.535-.403 3.535-.403l1.343-1.44 1.359 2.21zm7.411 3.216c-.323 0-.597-.163-.78-.401l-.013.008-4.862-7.485c-.002-.003-.003-.005-.005-.008l-.046-.071-.004-.021c-.18-.301-.29-.647-.29-1.022 0-.126.015-.248.037-.368l-.001-.006.005-.029.66-4.057-1.698-.34-2.458 1.616c-.159.107-.339.184-.545.184-.552 0-1-.448-1-1 0-.347.187-.637.456-.817l2.99-2.015c.163-.109.357-.168.554-.168h3.999.001c1.105 0 2 .895 2 2 0 .122-.015.24-.036.357l.003.004-.008.037c-.001.003-.001.006-.002.01l-.996 4.985 2.956 7.213c.002.004.003.008.005.012l.011.027-.005.003c.043.109.072.227.072.352 0 .552-.448 1-1 1zm4-9h-3c-.179 0-.354-.048-.509-.139l-.411-.273.62-2.239.956.651h2.344c.552 0 1 .448 1 1s-.448 1-1 1z" fill="#fff"/></svg>