<svg fill="#fff" viewBox="0 0 30 30" xmlns="http://www.w3.org/2000/svg"><path d="m15 2c-.552 0-1 .448-1 1v.171875c0 .478-.336594.9044687-.808594.9804688-.229.0369999-.455687.0798593-.679687.1308593-.464.106-.933235-.1567031-1.115235-.5957031l-.066406-.15625c-.211-.51-.795641-.7530156-1.30664-.5410156-.5100005.211-.7530161.7956406-.5410161 1.3066406l.0664062.1601562c.184.4400001.0368594.9608907-.3691406 1.2128907-.196.122-.3872187.2498125-.5742187.3828125-.388.277-.9247188.2139531-1.2617188-.1230469l-.1210938-.1210937c-.391-.3910001-1.0240625-.391-1.4140624 0-.39.391-.39 1.0240625 0 1.4140624l.1210937.1210938c.337.337.4000469.8727188.1230469 1.2617188-.133.1869999-.2608125.3782187-.3828125.5742187-.252.406-.7738438.5540937-1.2148438.3710937l-.1582031-.0664062c-.51-.211-1.0965937.0310156-1.3085938.541016-.2109999.51.0310157 1.09464.5410157 1.30664l.15625.064453c.439.182.7036562.651235.5976562 1.115235-.051.224-.0958125.450687-.1328125.679687-.075.471-.5005156.808594-.9785156.808594h-.171875c-.552 0-1 .448-1 1s.448 1 1 1h.171875c.478 0 .9044687.336594.9804688.808594.0369999.229.0798593.455687.1308593.679687.106.464-.1567031.933235-.5957031 1.115235l-.15625.066406c-.51.211-.7530156.795641-.5410156 1.30664.211.510001.7956406.753016 1.3066406.541016l.1601562-.066406c.441-.183.9618438-.03586 1.2148438.36914.122.196001.2488125.388172.3828125.576172.277.388.2139531.924719-.1230469 1.261719l-.1230468.121094c-.3910001.391-.391 1.024062 0 1.414062s1.0240624.391 1.4140624 0l.1230469-.121093c.337-.337.8717657-.402 1.2597657-.125.188.134.3801718.262765.5761718.384765.405.252.5540938.773844.3710938 1.214844l-.0664063.158203c-.211.51.0310157 1.096594.5410159 1.308594.51.211 1.09464-.031016 1.30664-.541016l.064454-.15625c.182-.439.651234-.703656 1.115234-.597656.224.051.450687.095812.679687.132812.469.073.806641.498563.806641.976563v.171875c0 .552.448 1 1 1s1-.448 1-1v-.171875c0-.478.336594-.904469.808594-.980469.229-.037.455687-.079859.679687-.130859.464-.106.933235.156703 1.115235.595703l.066406.15625c.211.51.795641.753016 1.30664.541016.510001-.211.753016-.795641.541016-1.306641l-.066406-.160156c-.183-.441-.03586-.961844.36914-1.214844.196001-.122.388172-.248813.576172-.382813.388-.277.924719-.213953 1.261719.123047l.121094.123047c.391.391 1.024062.391 1.414062 0s.391-1.024062 0-1.414062l-.121093-.123047c-.337-.337-.402-.871766-.125-1.259766.134-.188.262765-.380172.384765-.576172.252-.405.773844-.554093 1.214844-.371093l.158203.066406c.51.211 1.096594-.031016 1.308594-.541016.211-.51-.031016-1.09464-.541016-1.30664l-.15625-.064454c-.439-.181999-.703656-.651234-.597656-1.115234.051-.224.095812-.450687.132812-.679687.073-.469.498563-.806641.976563-.806641h.171875c.552 0 1-.448 1-1s-.448-1-1-1h-.171875c-.478 0-.904469-.336594-.980469-.808594-.037-.229-.079859-.455687-.130859-.679687-.106-.464.156703-.933235.595703-1.115235l.15625-.066406c.51-.211.753016-.795641.541016-1.30664-.211-.5100005-.795641-.7530161-1.306641-.5410161l-.160156.0664062c-.441.183-.961844.0358594-1.214844-.3691406-.122-.196-.248813-.3881719-.382813-.5761719-.277-.388-.213953-.9247187.123047-1.2617187l.123047-.1210938c.391-.391.391-1.0240625 0-1.4140625-.391-.391-1.024062-.391-1.414062 0l-.121094.1230469c-.337.337-.873719.402-1.261719.125-.188-.134-.380172-.2627656-.576172-.3847656-.405-.252-.55214-.7738438-.36914-1.2148438l.066406-.1582031c.211-.51-.031016-1.0965938-.541016-1.3085938-.51-.2109999-1.09464.0310157-1.30664.5410157l-.066407.15625c-.181999.439-.651234.7036562-1.115234.5976562-.224-.051-.450687-.0958125-.679687-.1328125-.47-.075-.806641-.5005156-.806641-.9785156v-.171875c0-.552-.448-1-1-1zm0 5c4.078645 0 7.438586 3.054876 7.931641 7h-6.203125a2 2 0 0 0 -1.728516-1 2 2 0 0 0 -.001953 0l-3.101563-5.375c.954515-.402271 2.002727-.625 3.103516-.625zm-4.830078 1.6328125 3.099609 5.3671875a2 2 0 0 0 -.269531 1 2 2 0 0 0 .269531.996094l-3.101562 5.36914c-1.9215432-1.461238-3.167969-3.765163-3.167969-6.365234 0-2.601055 1.2471371-4.906039 3.169922-6.3671875zm6.560547 7.3671875h6.201172c-.493055 3.945124-3.852996 7-7.931641 7-1.100789 0-2.149001-.222729-3.103516-.625l3.101563-5.375a2 2 0 0 0 .001953 0 2 2 0 0 0 1.730469-1z" fill="#fff"/></svg>