<svg fill="#fff" viewBox="0 0 30 30" xmlns="http://www.w3.org/2000/svg"><path d="m13 3c-6.075 0-11 4.477-11 10 0 2.836604 1.3081273 5.387771 3.3964844 7.205078-.2995453.98097-.9243826 1.956621-2.0722656 2.826172a.5.5 0 0 1 -.0019532.001953.5.5 0 0 0 -.3222656.466797.5.5 0 0 0 .5.5.5.5 0 0 0 .1015625-.011719c1.9400682-.005653 3.5953798-.834356 4.9121094-1.873047.6248485.254159 1.2770974.463695 1.9570311.609375-.304-.86-.470703-1.775609-.470703-2.724609 0-4.963 4.486-9 10-9 1.382 0 2.699437.253891 3.898438.712891-.696001-4.9140004-5.304438-8.712891-10.898438-8.712891zm7 10a8 7 0 0 0 -8 7 8 7 0 0 0 8 7 8 7 0 0 0 2.984375-.509766c1.226358.85669 2.710491 1.49211 4.410156 1.498047a.5.5 0 0 0 .105469.011719.5.5 0 0 0 .5-.5.5.5 0 0 0 -.328125-.46875c-.915189-.694822-1.501762-1.459631-1.853516-2.238281a8 7 0 0 0 2.181641-4.792969 8 7 0 0 0 -8-7z" fill="#fff"/></svg>